<svg xmlns="http://www.w3.org/2000/svg" viewBox="0 0 24 24" width="24" height="24" role="img" aria-label="House on fire">
  <path d="M2.6 10.4 12 3l9.4 7.4" fill="none" stroke="#000" stroke-width="1.8" stroke-linecap="round" stroke-linejoin="round"/>
  <path d="M5.2 9.2v9.4c0 1 .8 1.8 1.8 1.8h10c1 0 1.8-.8 1.8-1.8V9.2" fill="none" stroke="#000" stroke-width="1.8" stroke-linejoin="round"/>
  <path d="M12 18.1c-2 0-3.6-1.3-3.6-3.2 0-1.1.5-2.1 1.3-2.9 1.2-1.2 1.7-2.2 1.4-3.6 1.8 1.4 3.1 3.2 3.1 4.7 0 .5-.1 1.1-.3 1.5.6-.3 1.2-1 1.4-1.8.9 2.6-.7 5.3-3.3 5.3z" fill="#FF0000"/>
</svg>
